<svg version="1.1" id="Layer_1" xmlns="http://www.w3.org/2000/svg" xmlns:xlink="http://www.w3.org/1999/xlink" x="0px" y="0px"
	 width="100%" viewBox="0 0 512 544" enable-background="new 0 0 512 544" xml:space="preserve">
<path fill="#000000" opacity="1.000000" stroke="none" 
	d="
M259.049835,418.356598 
	C245.269867,419.101685 231.947525,419.337555 218.610474,419.246674 
	C213.902771,419.214600 211.538788,417.565399 211.302414,412.638489 
	C210.975693,405.828247 210.320709,399.028290 209.616608,392.243561 
	C209.158493,387.829193 211.325409,386.103394 215.334137,386.100372 
	C220.326660,386.096649 225.327042,386.095398 230.309708,386.361450 
	C235.324707,386.629303 236.614807,385.682068 236.630951,380.581482 
	C236.674194,366.915588 236.923233,353.240051 236.488586,339.587524 
	C236.294296,333.485352 238.494110,329.725006 243.429611,326.412384 
	C260.168976,315.177155 276.604095,303.506989 292.462830,291.027496 
	C296.415894,287.916779 298.295990,284.631622 297.744263,279.586334 
	C295.538940,259.419189 292.935547,239.318878 288.362762,219.528976 
	C287.588470,216.178146 285.583832,213.588318 282.487183,211.797852 
	C275.277557,207.629333 268.205933,203.220139 260.960480,199.116577 
	C258.005493,197.442993 255.722076,195.564819 255.658325,191.921158 
	C255.613953,189.387161 254.116882,188.528854 251.840927,188.224548 
	C246.682480,187.534805 242.299026,189.237335 238.430893,192.452057 
	C226.248779,202.576309 213.667587,212.172211 200.393433,220.816574 
	C196.521439,223.338104 194.769592,226.720078 194.384109,231.114456 
	C192.378082,253.982727 189.427612,276.792297 190.230759,299.831879 
	C190.428894,305.515503 187.997177,309.464081 182.952225,312.422760 
	C161.257828,325.145691 139.706879,338.113464 118.126183,351.029633 
	C116.608421,351.938019 114.648727,352.390350 113.944283,354.433868 
	C114.516945,356.948517 116.749306,358.046539 118.507576,359.462067 
	C132.787811,370.958191 147.219116,382.270813 162.807922,391.965057 
	C167.503830,394.885315 170.241653,398.567322 171.486786,404.017670 
	C174.396790,416.755829 179.291779,428.768829 186.421661,439.774231 
	C190.784805,446.509033 196.244629,451.916260 204.429565,453.915558 
	C206.072479,454.316864 208.118179,454.637421 208.791458,456.688873 
	C208.747940,457.752533 208.086975,458.484589 207.272324,458.454987 
	C199.644760,458.177704 192.089478,458.041565 186.472458,451.349792 
	C178.557693,441.920654 169.733749,433.187653 165.002029,421.488190 
	C162.630997,415.625671 160.237885,409.771057 157.961395,403.871704 
	C156.467941,400.001556 154.084000,397.029297 150.550415,394.764740 
	C134.386002,384.405457 119.288490,372.633179 104.912453,359.921967 
	C104.042320,359.152618 103.177071,358.238098 102.137146,357.822327 
	C93.231064,354.261597 84.285202,350.800415 75.009010,347.175720 
	C74.353714,351.205872 77.380623,354.148499 76.835388,357.745667 
	C70.911957,355.166412 53.146481,327.741241 53.507915,321.554016 
	C57.774441,323.508972 60.224434,327.084473 62.762615,330.463501 
	C65.225815,333.742706 67.403229,337.236542 70.442589,341.723267 
	C70.213982,335.557281 72.854286,335.961273 76.146965,337.333099 
	C82.290581,339.892609 88.194588,343.005768 94.614922,344.938965 
	C98.231110,346.027771 101.375267,345.750793 104.614990,343.780914 
	C126.110428,330.710815 147.650269,317.713745 169.186264,304.710449 
	C172.098038,302.952301 173.613876,300.668091 173.809906,297.047729 
	C175.139999,272.484558 177.186691,247.983826 180.832230,223.636246 
	C181.371765,220.032944 183.228745,217.435501 186.131699,215.564743 
	C202.534470,204.994324 218.349304,193.626968 233.471619,181.282425 
	C236.618027,178.713959 240.507751,177.310074 244.652435,177.695892 
	C252.200287,178.398453 258.235260,175.404663 263.751984,170.659744 
	C268.075684,166.940979 272.755493,163.764069 278.509552,162.628204 
	C280.680511,162.199646 282.015472,160.749649 282.921326,158.900299 
	C285.276154,154.092697 286.925171,149.047012 287.773163,143.749893 
	C289.007446,136.039749 286.387268,130.127563 279.838684,125.757309 
	C275.904816,123.132004 272.266052,120.064507 268.372253,117.102638 
	C270.404602,115.248047 271.501740,116.491394 272.513733,117.113678 
	C275.918945,119.207542 279.277710,121.382133 282.590088,123.620796 
	C292.748352,130.486237 295.829834,138.512711 292.760895,150.512558 
	C291.897675,153.887802 290.592957,157.154297 289.417816,160.444611 
	C287.755585,165.098465 285.247559,167.935440 279.591583,168.808716 
	C272.320831,169.931320 267.031372,175.575851 262.274750,180.836761 
	C259.028992,184.426636 261.689545,191.659958 267.018372,194.948746 
	C274.384338,199.494797 281.932220,203.757294 289.519409,207.927872 
	C292.350342,209.484009 293.999176,211.408752 294.808868,214.630203 
	C300.041626,235.448517 303.973572,256.455841 306.679291,277.785400 
	C307.810089,286.699646 304.336151,291.322723 298.186554,296.148621 
	C282.973206,308.087158 267.529724,319.685974 251.323486,330.245331 
	C248.031433,332.390289 246.066574,335.022552 246.032394,339.204468 
	C245.920853,352.861694 245.703094,366.520874 245.266586,380.170990 
	C245.123184,384.654846 246.859314,386.049835 251.141937,385.805054 
	C256.458862,385.501190 261.814667,385.887634 267.133148,385.598511 
	C271.477051,385.362366 272.823181,387.288483 272.293915,391.248566 
	C271.259552,398.988129 270.276642,406.734619 269.213104,414.470123 
	C268.888184,416.833344 267.119446,417.791016 265.000122,418.058777 
	C263.188293,418.287689 261.344360,418.262756 259.049835,418.356598 
z"/>
<path fill="#000000" opacity="1.000000" stroke="none" 
	d="
M320.212585,76.838860 
	C302.393951,68.942841 284.041748,64.272446 265.279419,61.051476 
	C260.979645,60.313324 255.436081,59.890633 254.990662,54.980064 
	C254.565933,50.297855 259.427063,47.689667 263.530426,45.628128 
	C276.533997,39.095074 289.796173,40.613960 302.921021,44.812412 
	C376.131470,68.231438 428.035919,115.138885 457.479797,186.284470 
	C468.791779,213.617737 474.438599,242.319107 474.572937,271.935425 
	C474.599884,277.870178 475.272980,284.228058 472.131134,290.204620 
	C469.159302,288.890747 468.702026,286.219299 467.462067,284.227234 
	C463.741028,278.249359 461.976685,277.384430 455.236572,279.153076 
	C450.849121,280.304413 451.053772,277.213867 450.777374,274.591003 
	C449.661926,264.006592 449.679108,253.340408 447.868408,242.792328 
	C434.538849,165.143097 391.785034,110.154045 320.212585,76.838860 
z"/>
<path fill="#000000" opacity="1.000000" stroke="none" 
	d="
M386.748291,349.537537 
	C389.397522,349.582672 390.252411,348.030792 390.756744,346.142090 
	C392.767914,338.610229 395.451721,331.208862 394.340393,323.154053 
	C393.799805,319.236237 396.098114,316.149780 398.157990,313.120972 
	C399.013031,311.863739 400.252686,310.788940 401.953796,311.445221 
	C403.789642,312.153473 404.341492,313.758881 403.939636,315.545715 
	C403.320038,318.300934 402.617584,321.048126 401.753479,323.735413 
	C400.086212,328.920502 399.076477,334.204468 398.457275,339.686493 
	C400.973877,339.847809 401.654175,337.373413 403.597015,337.240234 
	C404.936127,338.198395 404.146088,339.306549 403.700409,340.290833 
	C399.311707,349.983826 395.743256,360.062775 389.747711,368.994659 
	C386.876373,373.272217 384.183716,377.670868 381.981384,382.379639 
	C379.616272,387.436432 375.087280,390.399780 370.339722,392.952148 
	C365.132233,395.751770 360.512543,399.140869 357.690582,404.451660 
	C358.679199,406.484863 360.192657,404.115448 361.235901,405.166931 
	C361.235901,405.413055 361.365540,405.859802 361.217468,405.989471 
	C341.433563,423.317871 319.486389,437.241791 295.312317,447.605957 
	C288.396210,450.571075 280.893372,451.140015 273.568054,452.387848 
	C273.243164,452.443207 272.865906,452.312531 272.574707,452.426361 
	C262.070343,456.532166 250.610718,456.822449 240.031647,460.566620 
	C237.052673,461.620972 234.227753,461.298859 231.024368,460.224701 
	C239.055283,455.435852 248.981918,455.143127 257.082062,449.823639 
	C252.943832,446.311829 248.318481,445.768890 243.697052,446.573151 
	C228.088089,449.289703 215.182587,442.065094 202.068176,435.599670 
	C199.569138,434.367645 198.306152,431.836365 197.656006,429.176971 
	C195.683685,421.109344 193.773773,413.026123 191.899292,404.935120 
	C191.394211,402.754944 191.794540,400.857697 194.415497,400.382629 
	C197.585251,399.808075 199.571350,401.117523 200.197861,404.324554 
	C201.599182,411.497772 203.298889,418.631500 204.273773,425.862671 
	C204.933029,430.752533 207.056107,433.692719 211.675079,435.360748 
	C221.293976,438.834351 230.227646,444.408997 241.253845,443.014252 
	C245.580994,442.466858 248.319168,441.551514 248.287140,436.788055 
	C248.252228,431.598389 251.174149,429.830597 255.932129,429.895752 
	C269.984222,430.088196 283.800018,427.538177 297.535614,425.252930 
	C305.814331,423.875488 312.745911,418.854614 316.465851,410.437988 
	C324.466278,392.336639 329.206635,373.431580 331.786041,353.838226 
	C334.522003,333.055786 334.445465,312.160919 332.371552,291.520081 
	C328.372742,251.721848 318.726929,213.216537 300.389801,177.329361 
	C297.596069,171.861862 295.971832,166.933197 298.688904,160.875763 
	C301.329773,154.988220 301.126709,148.489777 300.424408,142.173615 
	C299.359711,132.598969 294.604431,126.082420 285.838196,121.104073 
	C276.565308,115.837975 266.618256,112.209114 257.091583,107.377869 
	C257.602905,105.202332 259.097107,104.781456 260.516205,105.274712 
	C272.520447,109.447083 284.361969,114.030838 296.040222,119.068291 
	C300.273895,120.894493 301.372803,124.515373 303.255127,127.986794 
	C307.250336,135.354828 310.954468,142.759613 311.291199,151.351135 
	C311.349792,152.846558 311.644867,154.503204 311.142273,155.823227 
	C307.037415,166.603790 311.025940,175.610550 316.144043,185.042450 
	C330.075928,210.716919 338.479340,238.472855 343.487000,267.087280 
	C346.893341,286.551514 349.636841,306.347290 348.090546,326.177612 
	C346.905975,341.368835 345.755463,356.678436 341.800781,371.534485 
	C341.490784,372.699005 341.168579,373.791840 342.564575,375.237854 
	C346.601105,373.648407 350.791809,371.733856 355.156555,370.380585 
	C357.698212,369.592529 361.396423,366.921570 362.889130,371.005005 
	C364.204254,374.602753 361.808563,377.893585 358.207977,379.334839 
	C353.314911,381.293488 348.408997,383.438660 342.857697,382.726929 
	C339.644928,382.314972 339.105652,383.051025 338.518005,388.338196 
	C344.538025,384.805786 350.438660,381.930664 357.278595,382.854797 
	C357.899597,389.262573 356.564178,390.706696 346.895508,394.302917 
	C348.407898,395.161682 350.272736,393.636261 352.070251,395.552612 
	C351.395386,399.617523 349.341309,403.362091 344.841980,404.079803 
	C335.031708,405.644684 328.278595,409.832794 321.630951,418.170715 
	C312.660065,429.422516 298.230072,433.352234 283.604523,434.352661 
	C276.977753,434.805908 270.382050,435.710144 263.770508,436.392792 
	C261.787140,436.597534 260.055542,437.306305 259.752258,439.450684 
	C259.456421,441.542297 261.363800,441.960632 262.772064,442.857910 
	C271.546326,448.448181 280.603973,445.574677 289.262848,443.221863 
	C316.744202,435.754517 339.865448,421.695923 355.640808,397.199982 
	C356.813019,395.379761 357.882355,393.470673 359.806000,392.292450 
	C371.212402,385.306000 374.525269,373.749756 376.729065,361.737457 
	C377.827576,355.749695 380.890594,351.788422 386.748291,349.537537 
M336.067291,398.980530 
	C337.609344,398.065704 339.151428,397.150879 341.413818,395.808716 
	C337.599731,395.126923 334.928436,394.777008 333.809998,398.123566 
	C333.088440,400.282684 334.376923,399.780670 336.067291,398.980530 
z"/>
<path fill="#000000" opacity="1.000000" stroke="none" 
	d="
M371.150757,451.490631 
	C375.277283,449.725189 379.122284,448.397522 383.361389,447.913818 
	C393.785217,446.724487 398.206116,436.552155 392.252838,427.751312 
	C390.374298,424.974274 392.428589,423.349518 393.793823,421.663086 
	C403.226135,410.011688 412.608246,398.327118 420.218628,385.356781 
	C423.335236,380.045197 426.306641,374.648499 429.348785,369.293182 
	C430.578583,367.128357 432.071533,365.082458 434.828766,366.847931 
	C437.482666,368.547241 439.895355,371.296936 443.312683,369.444153 
	C446.875916,367.512268 449.027222,364.193817 451.109650,360.647522 
	C454.133881,355.497345 457.994568,350.838379 461.906921,346.187103 
	C462.149475,352.431671 459.790070,357.953003 457.648102,363.419708 
	C445.464233,394.515839 427.926605,422.219818 403.924500,445.536102 
	C364.190491,484.134888 317.060059,507.564178 261.721100,513.738892 
	C260.079254,513.922058 258.371979,514.012512 256.748413,513.778015 
	C250.673935,512.900635 249.401230,510.415344 251.993057,504.983582 
	C253.759842,501.280853 256.030853,497.894073 255.834061,493.329590 
	C255.709457,490.439148 259.123291,490.420013 261.310272,490.164032 
	C275.601868,488.490906 289.295044,484.380127 302.935577,480.080139 
	C323.290466,473.663544 341.687531,463.361755 359.256561,451.438080 
	C361.869141,449.665009 364.621124,448.094116 367.346649,446.494507 
	C367.702362,446.285736 368.286255,446.465820 368.687073,446.465820 
	C370.496857,447.778412 366.859802,451.230438 371.150757,451.490631 
z"/>
<path fill="#000000" opacity="1.000000" stroke="none" 
	d="
M257.612213,285.900757 
	C241.357101,287.133362 225.543503,287.371368 209.718033,287.041290 
	C203.723816,286.916260 202.542007,285.878601 202.699402,280.051941 
	C203.032135,267.735168 203.553452,255.423538 203.997772,243.109802 
	C204.119629,239.732742 205.483932,237.066681 208.265366,235.041504 
	C210.685913,233.279083 213.037384,231.400284 215.269821,229.405502 
	C219.962463,225.212463 225.237061,223.568344 231.658615,223.492645 
	C246.130905,223.322006 260.601410,222.458252 275.055298,221.588623 
	C279.674835,221.310699 281.438446,223.052094 282.291962,227.470703 
	C285.448151,243.810532 287.112793,260.344879 289.186188,276.825928 
	C289.939178,282.811218 288.577271,284.101440 282.482147,284.395172 
	C274.342316,284.787415 266.210266,285.342010 257.612213,285.900757 
z"/>
<path fill="#000000" opacity="1.000000" stroke="none" 
	d="
M154.353790,162.708038 
	C152.952301,156.944336 148.342285,157.006363 144.324997,156.706146 
	C141.930450,156.527176 139.725357,156.258896 137.657120,155.090591 
	C135.839157,154.063660 133.000046,153.415466 133.894699,150.643082 
	C134.817123,147.784637 137.442062,145.647400 140.452682,146.425629 
	C146.577271,148.008789 152.122681,151.194443 157.594940,154.314423 
	C159.721817,155.527039 159.794800,158.304733 160.235092,160.579498 
	C161.553299,167.390060 162.166733,167.643387 168.083649,163.814316 
	C171.580170,161.551575 175.311356,159.602600 178.592102,157.066391 
	C183.841309,153.008438 189.622314,151.951599 195.994812,152.828873 
	C200.609985,153.464233 205.250351,153.921768 209.857742,154.605286 
	C211.302246,154.819595 212.824585,155.268280 214.057648,156.023697 
	C221.165100,160.378036 221.313995,163.720963 214.595337,168.467270 
	C198.540771,179.808807 182.590546,191.323624 165.276047,200.727737 
	C161.148834,202.969376 158.810120,206.275238 157.621780,210.668152 
	C152.103302,231.068344 146.716690,251.491547 145.294983,272.705841 
	C144.924286,278.237183 142.589523,282.019501 137.343460,284.860596 
	C122.552589,292.870728 108.266190,301.782166 94.108627,310.880280 
	C90.164879,313.414642 86.270363,315.580414 81.098541,314.814423 
	C77.147453,314.229248 75.325661,318.048248 77.484024,321.581482 
	C78.520897,323.278839 79.949692,324.782104 80.734230,326.577271 
	C81.804375,329.025879 81.570366,331.730774 79.451530,333.470917 
	C77.070862,335.426117 74.671097,333.931396 72.678947,332.360565 
	C68.929535,329.404114 67.689224,323.915527 69.644638,319.425323 
	C70.389839,317.714142 71.142876,316.059967 69.852448,313.859772 
	C65.785072,315.710510 64.200829,312.762390 62.803200,309.748505 
	C60.492496,304.765656 57.305477,300.894806 52.146526,298.372498 
	C47.727188,296.211823 46.514389,289.104004 49.792210,283.090912 
	C53.225578,292.647858 61.912571,297.101410 66.115807,305.361511 
	C69.160942,298.461365 72.039268,298.087372 77.057617,303.793274 
	C81.948830,309.354553 81.967552,309.385559 88.156898,305.703064 
	C103.187065,296.760376 118.187767,287.768127 133.229095,278.844330 
	C135.433044,277.536774 136.391495,275.814941 136.705704,273.231842 
	C139.607590,249.375717 145.263443,226.160828 153.142975,203.465042 
	C154.147461,200.571777 155.911240,198.688187 158.476364,197.209030 
	C166.412003,192.633026 174.307816,187.986923 182.179138,183.300934 
	C184.583771,181.869415 186.859299,180.221024 189.463287,178.493240 
	C186.548569,175.753525 183.869553,175.691055 180.968552,177.354340 
	C171.431625,182.822296 161.880707,188.265930 152.356995,193.756790 
	C150.116791,195.048386 148.733276,197.037506 147.711624,199.440735 
	C140.123734,217.289810 135.109192,235.896790 131.500366,254.891068 
	C130.619415,259.527802 128.621475,262.680847 124.404869,264.961151 
	C114.298019,270.426849 104.380386,276.242676 94.394264,281.931030 
	C92.925011,282.767914 91.385468,283.668915 89.694473,283.310822 
	C82.134773,281.709869 75.309402,278.264893 68.643532,274.513641 
	C67.416817,273.823273 67.041954,272.336517 67.755455,270.963837 
	C68.753731,269.043243 70.560219,269.198639 72.118774,269.843445 
	C75.809235,271.370209 79.479027,272.984100 83.017693,274.830139 
	C86.597710,276.697754 89.672050,276.585846 93.248428,274.415894 
	C100.934181,269.752563 108.872292,265.498505 116.775177,261.202179 
	C121.488083,258.640045 123.756729,255.028763 124.934441,249.562302 
	C128.936874,230.984818 135.004868,212.992386 142.419342,195.479904 
	C143.623505,192.635727 145.838394,190.591125 148.547379,189.099777 
	C157.592682,184.120102 166.584290,179.039307 175.708328,174.208496 
	C178.490540,172.735443 180.569397,171.078094 181.782455,168.025436 
	C183.650635,163.324158 188.778809,160.275558 193.231644,160.768738 
	C198.654831,161.369385 200.126221,165.286194 200.505417,169.923798 
	C204.696915,169.108963 208.225204,166.609085 211.146362,162.511841 
	C211.140488,161.555099 210.570602,160.754562 209.780167,160.638733 
	C200.230286,159.239319 190.588684,155.741852 181.304489,161.697372 
	C171.631332,167.902420 161.864487,173.966232 152.306641,180.343658 
	C148.813995,182.674103 145.358612,183.771088 141.560150,181.956726 
	C134.379944,178.527023 125.991768,180.511475 118.913498,176.641327 
	C116.709244,175.436111 113.751228,174.932175 115.164207,171.477036 
	C116.361443,168.549438 118.484062,166.080414 122.023537,166.974121 
	C125.839462,167.937653 129.776855,168.720749 132.932724,171.584473 
	C136.667999,174.973969 141.611298,176.046829 146.337158,176.392426 
	C152.823349,176.866791 156.284988,170.749023 154.353790,162.708038 
z"/>
<path fill="#000000" opacity="1.000000" stroke="none" 
	d="
M388.356262,221.728027 
	C391.489807,227.544128 392.648590,233.752899 397.427612,238.578186 
	C401.905304,243.099182 399.857483,250.902100 394.865204,253.108902 
	C393.179993,253.853836 391.302704,254.224579 390.586914,252.241806 
	C389.252655,248.545593 386.661224,244.864120 387.971954,240.800049 
	C389.167267,237.093628 388.275177,233.940475 387.049164,230.644897 
	C386.642609,229.552002 386.342163,228.398682 385.788727,227.384583 
	C379.357147,215.599564 376.834869,202.919388 376.691925,189.592972 
	C376.644775,185.197586 374.864502,181.104980 372.209259,177.582352 
	C368.012878,172.015228 363.499390,166.683670 359.412994,160.775314 
	C359.851471,162.206238 360.202728,163.671066 360.743591,165.062180 
	C363.003357,170.874466 364.634827,177.006439 364.135895,183.106079 
	C363.186920,194.708481 366.305267,205.118042 371.445282,215.196991 
	C371.823547,215.938751 372.163788,216.700394 372.507385,217.459259 
	C381.762054,237.898224 381.430145,233.178909 373.074066,251.774384 
	C371.580139,255.099014 370.983765,258.292480 372.101898,261.906342 
	C372.926208,264.570496 373.350922,267.368042 373.462769,270.238708 
	C373.637268,274.715607 376.054199,278.040497 379.901001,280.312561 
	C381.907928,281.497925 384.272034,282.325439 385.861267,283.924408 
	C390.441223,288.532410 394.374207,287.380463 398.742462,283.562012 
	C403.104523,279.748901 408.430969,277.034454 411.551727,271.830811 
	C412.226440,270.705811 413.370758,269.882355 415.274200,270.276611 
	C416.552307,273.337128 416.253601,275.783173 413.477325,278.447998 
	C407.940521,283.762543 402.613007,289.243835 395.870392,293.107971 
	C393.665649,294.371460 392.119019,296.401825 390.993866,298.686249 
	C386.772217,307.257507 381.119141,314.888977 375.385010,322.462616 
	C371.262970,327.907013 369.635315,333.604095 373.021942,340.067444 
	C374.384216,342.667328 374.194183,345.256134 372.054169,347.436920 
	C369.469208,350.071198 366.801666,352.827423 362.714264,352.446045 
	C359.201080,352.118256 357.457825,347.490875 360.219360,344.769958 
	C364.071106,340.974854 364.835999,336.721710 364.838745,331.662598 
	C364.841248,327.039856 367.532043,323.223877 370.217377,319.534698 
	C375.312134,312.535431 380.241486,305.415955 385.280945,298.376099 
	C387.483429,295.299377 387.015045,293.144135 383.727936,291.008759 
	C365.193573,278.968414 369.587738,283.087708 365.471344,263.421082 
	C364.434357,258.466644 364.863892,254.041214 367.449371,250.034592 
	C373.816467,240.167648 374.511475,230.497650 368.295502,220.191040 
	C365.221924,215.094757 363.402191,209.258362 360.683075,203.926178 
	C359.027924,200.680374 358.163177,197.490967 358.638153,193.868835 
	C360.209900,181.882431 358.275513,170.391647 353.548737,159.326477 
	C352.875641,157.750824 352.158905,156.019577 353.168732,154.541779 
	C355.684448,150.860245 353.394928,148.607559 351.326172,145.836563 
	C336.968384,126.604889 316.800201,116.612930 294.609985,109.742294 
	C292.549072,109.104187 290.518433,108.359795 288.506348,107.580566 
	C288.138458,107.438095 287.928497,106.887711 287.590515,106.455055 
	C289.355164,105.063766 291.241974,105.428703 292.879730,105.952942 
	C309.112915,111.148979 324.723114,117.808487 339.039948,127.113197 
	C344.045197,130.366196 346.723877,136.159790 351.334076,140.081131 
	C355.932861,143.992798 360.025513,148.132126 361.923248,154.630981 
	C363.955200,161.589478 368.989929,167.463104 373.812012,172.969711 
	C379.386444,179.335434 381.880005,186.682144 382.154694,194.856186 
	C382.466064,204.122314 384.083771,213.013748 388.356262,221.728027 
z"/>
<path fill="#000000" opacity="1.000000" stroke="none" 
	d="
M173.024261,120.361938 
	C179.595093,116.419067 185.545746,111.987907 193.602951,116.719559 
	C197.076508,118.759438 196.986191,120.234871 194.604889,122.665421 
	C189.711197,127.660286 184.783539,132.622055 179.916946,137.643097 
	C179.034821,138.553223 177.840042,139.356674 177.901993,141.285202 
	C183.412613,139.940643 187.345276,136.515121 190.878525,132.568848 
	C195.841553,127.025635 204.407532,126.354591 209.990799,131.428421 
	C211.903610,133.166718 213.692139,134.467514 216.383316,134.843781 
	C219.341675,135.257416 222.112320,142.411362 221.138336,146.253906 
	C220.201096,149.951462 216.530197,152.179108 212.584290,151.260696 
	C209.055389,150.439362 207.871964,147.938736 209.375900,144.850479 
	C211.747925,139.979584 208.977081,137.002289 205.599976,134.890579 
	C201.891617,132.571732 197.235107,132.046616 194.138901,135.803894 
	C188.237976,142.964706 179.824677,145.940338 172.080154,149.984985 
	C164.342575,154.026047 157.105667,150.108078 150.179459,147.160858 
	C147.431915,145.991745 148.448624,142.359253 149.125168,139.847168 
	C150.622894,134.286087 155.892822,131.382019 158.805344,126.766655 
	C159.622177,125.472237 161.249680,125.857521 162.389313,126.769279 
	C166.058624,129.704910 167.246201,127.829025 167.757294,124.171356 
	C168.145935,121.389900 169.966263,120.227959 173.024261,120.361938 
M181.252579,130.753845 
	C184.215866,128.175827 187.179153,125.597786 190.557068,122.659042 
	C186.170135,119.760544 183.307358,119.602333 180.375931,122.235985 
	C178.533661,123.891121 176.418976,125.239456 174.531433,126.848534 
	C170.965591,129.888275 166.671707,132.143555 163.847992,136.173218 
	C170.703339,139.882050 172.289001,139.693924 177.232498,134.786697 
	C178.411774,133.616074 179.576584,132.430862 181.252579,130.753845 
M167.753723,146.566559 
	C169.073486,146.171753 170.332993,145.734192 169.532639,143.480209 
	C164.838654,142.933090 160.323685,140.364532 153.859695,140.684708 
	C157.995041,145.646881 162.769226,145.569534 167.753723,146.566559 
z"/>
<path fill="#000000" opacity="1.000000" stroke="none" 
	d="
M75.761894,375.168884 
	C74.641823,372.996338 73.314201,371.267029 73.361679,368.492279 
	C76.744682,370.114227 77.433411,373.690155 80.538712,375.579926 
	C79.686951,372.540100 79.331779,369.671509 82.415855,368.195831 
	C85.619469,366.662964 87.759499,368.724670 89.738663,370.875824 
	C92.555855,373.937866 95.631821,376.825775 94.681679,381.704437 
	C94.494453,382.665771 95.301758,383.914825 95.860931,384.913269 
	C103.047417,397.745514 111.501030,409.641541 121.904709,420.099884 
	C124.163704,422.370758 126.836014,423.931976 129.993393,425.039642 
	C124.490524,418.146759 119.932938,410.564026 113.372131,404.574158 
	C112.637375,403.903351 111.727623,403.403534 111.074158,402.668671 
	C109.769615,401.201721 109.052078,399.311646 110.214638,397.648438 
	C111.378685,395.983093 113.263031,396.714844 114.746613,397.493286 
	C119.054306,399.753510 123.215263,401.973145 123.575310,407.879669 
	C123.757828,410.873566 126.186836,413.158081 128.114487,415.478149 
	C132.854614,421.183350 137.665634,426.826782 142.676285,432.575165 
	C135.817871,431.654907 129.393616,429.459564 123.993370,425.706665 
	C116.502960,420.501190 109.719376,414.274567 102.682259,408.426086 
	C101.821663,407.710876 100.514458,406.453918 100.681747,405.748657 
	C102.283806,398.994812 96.548691,395.387177 94.292389,390.324982 
	C93.551735,388.663300 92.184685,387.251862 91.601295,385.555054 
	C90.363586,381.955048 87.148911,380.357758 84.313690,380.801514 
	C79.411774,381.568695 77.900566,378.515930 75.761894,375.168884 
z"/>
<path fill="#000000" opacity="1.000000" stroke="none" 
	d="
M125.835022,201.577271 
	C127.635956,205.511536 127.246376,208.904251 125.549126,212.448822 
	C124.124611,215.423813 123.234459,218.665039 122.223473,221.825424 
	C120.242210,228.018951 115.566475,230.725632 109.110794,230.602341 
	C102.422737,230.474609 96.415756,228.602386 90.464668,225.869202 
	C86.922386,224.242325 86.366066,221.958710 87.808655,218.643814 
	C89.230499,215.376556 91.246201,213.986374 94.866096,215.542603 
	C99.408356,217.495331 104.265572,218.644562 107.857193,222.548935 
	C110.152412,225.043976 112.775726,224.220062 114.512299,221.513931 
	C116.861069,217.853775 118.368484,213.779175 119.460495,209.591171 
	C120.216507,206.691788 119.057686,204.909805 115.960022,204.168686 
	C111.616196,203.129425 107.140915,202.610474 102.998085,200.700974 
	C99.999023,199.318649 98.963066,197.364349 100.329498,194.350998 
	C101.591988,191.566895 102.925858,188.505264 106.894196,190.216095 
	C113.591324,193.103333 120.311028,196.005737 125.835022,201.577271 
z"/>
<path fill="#000000" opacity="1.000000" stroke="none" 
	d="
M304.944885,352.896118 
	C310.483124,357.951019 310.141205,360.975677 303.923950,364.438202 
	C299.657440,366.814301 295.322815,368.033630 290.769318,365.113251 
	C287.070038,362.740662 286.777618,359.613647 289.996124,356.564758 
	C296.433685,350.466644 296.713104,343.000824 290.622833,336.907043 
	C288.068787,334.351562 287.536713,331.484375 290.076843,329.020844 
	C293.896454,325.316345 298.445770,323.015808 304.088135,324.672180 
	C310.583374,326.578918 311.762604,330.639069 307.207520,335.668182 
	C302.580597,340.776611 302.633423,346.553833 304.944885,352.896118 
z"/>
<path fill="#000000" opacity="1.000000" stroke="none" 
	d="
M220.110382,114.677727 
	C227.255569,114.672684 233.917633,114.681580 240.579559,114.654533 
	C242.060883,114.648521 243.759705,114.815712 244.441147,113.073738 
	C245.125504,111.324303 243.801697,110.305687 242.649582,109.333168 
	C241.112198,108.035416 239.760376,106.615257 239.075806,104.703987 
	C240.085022,102.552422 242.846619,105.043526 243.786285,102.560364 
	C241.655121,100.193634 237.849991,102.115822 235.395523,99.232719 
	C239.278625,98.421631 238.485855,91.829208 243.817429,92.844963 
	C245.346863,94.648178 242.764923,95.659515 243.494019,97.348824 
	C246.850525,98.875610 249.487671,95.191490 252.780579,95.594948 
	C253.960098,97.967049 250.692078,98.956093 251.291504,101.054108 
	C252.337463,102.460892 254.187088,101.327477 255.438614,102.323143 
	C256.026154,104.528038 253.397903,104.591133 252.820908,106.261658 
	C252.973862,108.485123 256.437988,109.196068 255.871475,112.053207 
	C253.606552,113.473938 252.211914,109.925056 250.025635,110.937012 
	C249.630966,118.896362 249.494354,119.057320 240.577988,119.303398 
	C237.245132,119.395393 234.000229,119.724007 230.918808,121.123955 
	C230.297546,123.683510 231.811935,125.743011 232.064484,128.005783 
	C232.343277,130.503616 232.303848,132.859024 229.023544,133.177795 
	C225.754791,133.495438 224.051483,131.988434 223.898788,128.614334 
	C223.790161,126.214569 224.759781,124.085716 225.380936,121.614578 
	C221.992050,119.438889 218.189941,119.594429 214.453690,119.266617 
	C210.555664,118.924591 205.602386,120.059456 206.119171,113.143799 
	C206.295868,110.779167 202.442184,111.326630 201.316086,109.083778 
	C204.038223,106.914665 207.070679,106.660545 210.151688,107.778748 
	C213.186569,108.880234 211.987045,111.542015 211.426147,113.579781 
	C214.329803,115.328697 217.051697,114.407829 220.110382,114.677727 
z"/>
<path fill="#000000" opacity="1.000000" stroke="none" 
	d="
M202.147949,377.672546 
	C197.885239,383.563721 186.514847,383.166168 183.037689,377.390503 
	C181.600922,375.003998 182.170731,373.131653 184.297546,371.290924 
	C188.336182,367.795502 188.299850,358.090424 184.189362,354.500702 
	C181.785889,352.401672 179.592087,350.233887 180.677414,346.907166 
	C181.855759,343.295319 185.352310,343.000793 188.516785,342.717621 
	C192.409210,342.369293 196.188034,342.641296 199.212280,345.664795 
	C202.257797,348.709564 202.219635,351.196564 198.979202,354.032104 
	C194.116882,358.286865 194.220428,367.211792 199.377365,371.407349 
	C201.356293,373.017334 202.721161,374.607452 202.147949,377.672546 
z"/>
<path fill="#000000" opacity="1.000000" stroke="none" 
	d="
M157.122009,364.478790 
	C156.971771,362.288086 156.661896,360.470245 156.685165,358.656677 
	C156.726440,355.441254 155.885025,352.793304 152.953079,351.041290 
	C150.439621,349.539429 148.980347,347.353027 149.963440,344.366486 
	C150.879974,341.582184 153.164383,340.117279 155.973648,339.793060 
	C159.893585,339.340637 163.632492,340.193329 166.844040,342.521912 
	C170.753021,345.356201 170.941162,348.438721 167.666718,352.015594 
	C163.835007,356.201172 164.248932,365.147980 168.581146,369.048553 
	C170.730179,370.983429 173.209305,372.779907 171.977859,376.093353 
	C170.665054,379.625610 167.402405,379.399933 164.375885,379.385895 
	C162.380005,379.376648 160.416153,379.355591 158.520767,378.496033 
	C152.884644,375.939941 151.980392,372.252380 155.823029,367.501648 
	C156.424606,366.757904 156.691040,365.743073 157.122009,364.478790 
z"/>
<path fill="#000000" opacity="1.000000" stroke="none" 
	d="
M338.656616,174.748322 
	C338.412689,149.382401 328.860199,130.124802 305.020355,119.942360 
	C306.047455,117.382629 307.444885,118.333832 308.541412,118.790802 
	C326.287720,126.186440 337.782043,139.089233 342.683014,157.748337 
	C344.393250,164.259567 344.489014,170.911392 344.306702,177.581116 
	C344.202515,181.392776 343.831146,185.160370 345.284973,188.916550 
	C346.183319,191.237717 345.339996,193.666382 343.064575,194.995377 
	C340.474243,196.508301 338.701324,194.764435 337.061005,192.976624 
	C334.382690,190.057465 332.518097,187.234009 336.265106,183.601135 
	C338.533569,181.401794 338.870056,178.294830 338.656616,174.748322 
z"/>
<path fill="#000000" opacity="1.000000" stroke="none" 
	d="
M240.708862,139.797760 
	C249.528976,143.395187 257.913696,140.847855 266.191284,139.528000 
	C271.328003,138.708984 272.610138,129.138474 268.277466,124.359756 
	C265.832855,121.663506 262.866974,119.439590 260.132507,117.006699 
	C259.066467,116.058228 257.525696,115.440453 257.764160,112.684341 
	C262.967163,114.772713 266.912415,117.998497 270.921814,121.268707 
	C277.457916,126.599792 277.316681,133.138062 274.954834,140.262650 
	C273.888763,143.478485 271.731079,145.069809 268.334717,145.371552 
	C263.376221,145.812027 258.446442,146.572250 253.489319,147.033813 
	C250.924911,147.272552 248.662476,148.047592 246.547180,149.496231 
	C244.709198,150.754944 242.595840,151.142365 240.365448,151.089523 
	C235.110977,150.965042 233.736160,149.514893 233.625702,144.670227 
	C233.511124,139.645294 236.645737,139.474152 240.708862,139.797760 
z"/>
<path fill="#000000" opacity="1.000000" stroke="none" 
	d="
M382.864471,180.083221 
	C377.429504,170.628403 370.771606,162.474380 364.313843,154.131943 
	C371.567841,158.230255 377.222748,163.822342 381.539154,170.789032 
	C384.258118,175.177429 387.035126,179.530151 389.811554,183.882614 
	C392.262573,187.725082 394.374786,191.109528 394.268768,196.472031 
	C394.178314,201.049011 396.135956,206.420105 398.379730,211.127151 
	C401.600983,217.884811 404.511383,224.795532 407.389923,231.709427 
	C408.625763,234.677612 409.123444,237.830688 407.147217,240.771729 
	C406.583160,241.611206 405.667877,242.310013 404.597290,241.679321 
	C401.636688,239.935150 401.031158,236.704895 400.878082,233.863693 
	C400.426849,225.488678 397.111572,218.091644 394.082092,210.508133 
	C392.246918,205.914322 390.685242,201.092682 389.900085,196.228256 
	C388.937042,190.261322 386.664276,185.095306 382.864471,180.083221 
z"/>
<path fill="#000000" opacity="1.000000" stroke="none" 
	d="
M55.420280,285.578796 
	C50.803848,281.677185 47.160770,277.681091 47.874626,270.881836 
	C52.928265,272.250305 52.855350,277.738800 56.642101,279.279846 
	C59.765816,275.299042 59.662373,270.761017 56.276432,266.836395 
	C53.444931,263.554504 50.481647,260.381317 49.239967,256.068390 
	C48.742718,254.341248 47.954723,252.625931 49.611462,249.909546 
	C55.338184,257.591858 65.022408,262.151489 63.428886,273.814056 
	C63.137566,275.946167 63.337955,278.140900 63.196720,280.299225 
	C63.024784,282.926788 63.279640,285.230042 65.949280,286.698883 
	C67.700409,287.662384 68.815506,289.272980 67.447685,291.235870 
	C65.826447,293.562439 63.953423,292.407898 62.298717,291.135559 
	C60.056896,289.411682 57.887180,287.594086 55.420280,285.578796 
z"/>
<path fill="#000000" opacity="1.000000" stroke="none" 
	d="
M72.015968,248.729416 
	C67.739471,243.565140 66.553818,237.660904 68.843567,231.631195 
	C72.498543,222.006378 72.725128,213.102737 66.270096,204.398056 
	C63.330898,200.434525 64.820671,196.986481 69.219437,195.182571 
	C73.376228,203.937866 77.824852,212.603363 76.214561,222.851166 
	C75.880577,224.976562 75.922531,227.171799 74.991882,229.155441 
	C73.222862,232.926117 73.019554,236.724686 73.990295,240.788574 
	C74.636032,243.491852 74.936203,246.435944 72.015968,248.729416 
z"/>
<path fill="#000000" opacity="1.000000" stroke="none" 
	d="
M316.077881,130.945435 
	C322.434235,138.836975 325.179474,147.897980 326.673767,157.270569 
	C327.091187,159.888779 328.317230,162.273941 328.346802,164.922623 
	C328.369568,166.959885 329.464142,169.534744 326.311829,170.210922 
	C323.529572,170.807739 320.968384,170.263519 319.455139,167.492569 
	C318.151917,165.106262 318.399597,162.651016 319.594299,160.333084 
	C320.972687,157.658737 321.249695,154.667725 320.441193,152.074890 
	C317.449097,142.479294 315.175201,132.337784 305.297241,126.800423 
	C304.076538,126.116127 302.545135,125.412506 303.102631,122.689499 
	C308.015991,124.531212 311.986084,127.498283 316.077881,130.945435 
z"/>
<path fill="#000000" opacity="1.000000" stroke="none" 
	d="
M287.165344,382.861115 
	C291.233337,382.462585 294.856262,382.068054 298.486969,381.767120 
	C300.857269,381.570679 303.503113,381.418579 303.947693,384.558838 
	C304.339600,387.326721 303.484283,390.373352 300.640167,391.118317 
	C294.410461,392.750122 288.035614,393.958740 281.564667,394.235016 
	C279.116547,394.339508 278.009552,392.564453 277.950775,390.343781 
	C277.878601,387.618561 278.225159,384.868439 281.353638,383.865509 
	C283.069885,383.315308 284.928925,383.210510 287.165344,382.861115 
z"/>
<path fill="#000000" opacity="1.000000" stroke="none" 
	d="
M134.230865,136.247955 
	C131.763336,138.002045 129.673401,139.641647 128.289291,141.997955 
	C127.155602,143.927979 126.343216,145.765961 127.969398,147.969131 
	C129.291153,149.759842 130.407166,152.142838 127.496277,153.368179 
	C124.700424,154.545090 122.817162,152.711731 121.551422,150.285080 
	C120.886292,149.009903 121.087746,147.719360 121.454300,146.405991 
	C122.080315,144.162949 121.757271,142.221024 119.959030,140.494522 
	C118.266129,138.869141 116.298836,136.898529 119.308121,134.815109 
	C121.746185,133.127182 124.517448,131.065903 126.620155,135.408203 
	C126.740479,135.656693 127.149780,135.765228 127.752678,136.146240 
	C138.328903,130.551483 147.839386,122.536949 159.655426,118.812408 
	C151.460541,124.898361 142.507782,129.758530 134.230865,136.247955 
z"/>
<path fill="#000000" opacity="1.000000" stroke="none" 
	d="
M278.393005,397.273163 
	C284.625153,394.338013 291.035095,394.944458 297.248627,394.326202 
	C299.036591,394.148315 301.132446,394.655396 301.178802,397.116333 
	C301.235657,400.134338 300.115814,403.142609 297.095856,403.787506 
	C291.466217,404.989624 285.688080,405.874420 279.945648,406.053253 
	C275.160217,406.202362 274.529938,402.834839 278.393005,397.273163 
z"/>
<path fill="#000000" opacity="1.000000" stroke="none" 
	d="
M84.521278,186.555359 
	C83.102310,184.458435 81.820503,182.722855 80.675034,180.901520 
	C78.955673,178.167679 79.449478,175.534088 81.278679,173.045776 
	C81.881165,172.226196 82.606972,171.455719 83.719139,171.604477 
	C85.244308,171.808502 85.381142,173.042236 85.337120,174.241882 
	C85.237213,176.964554 86.673050,178.981735 88.373138,180.834259 
	C89.660896,182.237518 90.256500,183.858932 90.680222,185.680130 
	C91.524124,189.307281 91.681564,192.979065 93.055214,196.641632 
	C94.445297,200.348053 91.890549,204.141861 88.620728,207.080612 
	C85.136147,204.115646 85.185593,200.379150 86.043877,196.923447 
	C86.959686,193.236115 86.358788,190.067917 84.521278,186.555359 
z"/>
<path fill="#000000" opacity="1.000000" stroke="none" 
	d="
M285.981079,406.729614 
	C288.558868,406.453644 290.692596,406.213501 292.818146,405.914917 
	C294.487488,405.680420 296.195404,405.379974 297.373566,406.969788 
	C298.759918,408.840454 297.468323,410.431366 296.608002,411.992950 
	C295.770844,413.512451 294.425537,414.692535 292.758667,414.916412 
	C287.870605,415.572876 283.099213,417.162476 278.048645,416.650665 
	C276.402802,416.483917 274.566223,417.012848 273.942780,414.884186 
	C273.258362,412.547272 274.124817,410.549072 276.048981,409.217834 
	C278.873047,407.263885 282.173920,406.813843 285.981079,406.729614 
z"/>
<path fill="#000000" opacity="1.000000" stroke="none" 
	d="
M99.579590,167.748260 
	C101.040863,164.609207 101.016144,161.992264 99.175446,159.397278 
	C97.995430,157.733704 97.348541,155.825073 98.099007,153.755539 
	C98.837181,151.719894 99.546318,149.313446 102.208733,149.435394 
	C104.855034,149.556564 103.704613,152.266495 104.493301,153.656296 
	C107.760551,159.413849 105.521927,164.947495 104.097672,170.481308 
	C103.455467,172.976562 103.200958,175.270493 104.044998,177.763443 
	C104.556549,179.274338 104.958099,181.057648 103.384506,182.365982 
	C102.390671,183.192291 101.240944,183.281860 100.152931,182.578888 
	C98.424545,181.462143 96.836464,180.052597 97.231674,177.796768 
	C97.801369,174.544922 98.698433,171.350418 99.579590,167.748260 
z"/>
<path fill="#000000" opacity="1.000000" stroke="none" 
	d="
M408.872925,263.502380 
	C407.945221,265.115448 407.308075,266.527527 406.290588,267.567596 
	C404.650299,269.244293 402.888947,269.175720 402.104797,266.741852 
	C401.188934,263.899261 400.364716,260.976257 399.984009,258.025787 
	C399.564545,254.775467 401.488159,252.588333 404.474060,251.664810 
	C407.961578,250.586151 411.695435,249.365051 414.871460,252.272430 
	C416.687500,253.934891 415.285492,255.334686 413.658478,256.132202 
	C410.698212,257.583252 408.929779,259.720856 408.872925,263.502380 
z"/>
<path fill="#000000" opacity="1.000000" stroke="none" 
	d="
M408.985809,304.444092 
	C409.716248,302.959900 410.023224,301.343811 411.720856,301.557159 
	C413.084137,301.728546 413.509766,302.981384 413.472504,304.212891 
	C413.281769,310.516235 411.741211,316.501495 409.231812,323.671814 
	C406.161682,316.446381 406.886658,310.633911 408.985809,304.444092 
z"/>
<path fill="#000000" opacity="1.000000" stroke="none" 
	d="
M227.245789,96.719185 
	C227.673126,97.701843 227.642776,98.616028 226.892365,98.601089 
	C220.271637,98.469254 213.653275,98.218636 206.592316,97.988770 
	C207.611618,95.130440 209.313522,95.730392 210.600388,95.667809 
	C212.429749,95.578842 214.440903,95.723007 215.865631,94.623840 
	C220.338669,91.172867 223.773804,92.919975 227.245789,96.719185 
z"/>
<path fill="#000000" opacity="1.000000" stroke="none" 
	d="
M214.140732,224.274841 
	C214.979492,229.219788 211.218491,230.558014 208.117905,231.975677 
	C206.104462,232.896271 205.293747,231.025879 205.288269,229.132645 
	C205.275970,224.888138 207.960617,223.289505 214.140732,224.274841 
z"/>
<path fill="#000000" opacity="1.000000" stroke="none" 
	d="
M156.982269,438.641815 
	C163.597137,441.491211 168.496292,446.511749 175.110321,448.996735 
	C173.589081,451.060150 172.199112,450.576813 171.061218,450.054382 
	C165.601364,447.547729 160.823669,443.927460 155.964417,440.464355 
	C154.690018,439.556091 155.359360,438.838104 156.982269,438.641815 
z"/>
<path fill="#000000" opacity="1.000000" stroke="none" 
	d="
M224.206268,105.413651 
	C225.164948,104.251671 225.777115,103.185486 227.419083,103.374535 
	C228.873184,105.039680 228.472702,107.626137 230.248169,109.052681 
	C228.053543,111.455917 225.898224,111.057190 223.992020,109.988579 
	C221.825623,108.774109 223.434158,107.158478 224.206268,105.413651 
z"/>
<path fill="#000000" opacity="1.000000" stroke="none" 
	d="
M183.514130,109.475769 
	C182.106384,109.887718 181.043823,110.617264 179.782791,109.393303 
	C181.230774,105.785263 182.971817,102.779861 187.846725,104.258095 
	C188.074615,107.466629 186.047714,108.477654 183.514130,109.475769 
z"/>
<path fill="#000000" opacity="1.000000" stroke="none" 
	d="
M154.538773,114.560394 
	C151.784439,114.769646 151.776154,113.408730 152.641098,111.818459 
	C153.813446,109.663002 155.391861,108.147102 158.186935,109.258125 
	C158.445602,112.063492 156.731140,113.299088 154.538773,114.560394 
z"/>
<path fill="#000000" opacity="1.000000" stroke="none" 
	d="
M467.143402,320.681030 
	C467.448242,318.267120 467.700867,316.190369 469.365784,313.501282 
	C470.489990,317.706512 469.223846,320.522308 468.602386,323.485962 
	C466.643646,323.119751 467.313232,321.880463 467.143402,320.681030 
z"/>
</svg>